<svg width="113" height="20" viewBox="0 0 113 20" fill="none" xmlns="http://www.w3.org/2000/svg">
<path d="M4.24716 15H0.46875L5.37642 0.454545H10.0568L14.9645 15H11.1861L7.76989 4.11932H7.65625L4.24716 15ZM3.7429 9.27557H11.6406V11.946H3.7429V9.27557ZM22.9705 19.0909V13.2315H22.8995C22.7527 13.5677 22.5444 13.8826 22.2745 14.1761C22.0046 14.4697 21.6661 14.7064 21.2589 14.8864C20.8564 15.0663 20.3806 15.1562 19.8313 15.1562C19.0264 15.1562 18.2949 14.9479 17.6367 14.5312C16.9786 14.1146 16.453 13.4896 16.06 12.6562C15.667 11.8229 15.4705 10.7884 15.4705 9.55256C15.4705 8.26941 15.6741 7.21354 16.0813 6.38494C16.4885 5.55634 17.0212 4.94318 17.6793 4.54545C18.3422 4.14773 19.0548 3.94886 19.8171 3.94886C20.39 3.94886 20.8801 4.0483 21.2873 4.24716C21.6945 4.44129 22.0307 4.69223 22.2958 5C22.561 5.30777 22.7622 5.62737 22.8995 5.95881H23.006V4.09091H26.4435V19.0909H22.9705ZM21.0387 12.4503C21.4601 12.4503 21.82 12.3319 22.1183 12.0952C22.4165 11.8537 22.6462 11.5152 22.8072 11.0795C22.9682 10.6439 23.0487 10.1326 23.0487 9.54545C23.0487 8.94886 22.9682 8.43513 22.8072 8.00426C22.6509 7.57339 22.4213 7.24195 22.1183 7.00994C21.82 6.77794 21.4601 6.66193 21.0387 6.66193C20.6078 6.66193 20.2433 6.7803 19.945 7.01705C19.6467 7.25379 19.4194 7.58759 19.2631 8.01847C19.1116 8.44934 19.0359 8.95833 19.0359 9.54545C19.0359 10.1326 19.114 10.6439 19.2702 11.0795C19.4265 11.5152 19.6514 11.8537 19.945 12.0952C20.2433 12.3319 20.6078 12.4503 21.0387 12.4503ZM35.6783 10.2912V4.09091H39.1442V15H35.8345V12.9688H35.7209C35.4794 13.6364 35.0675 14.1667 34.4851 14.5597C33.9074 14.9479 33.209 15.142 32.3899 15.142C31.6465 15.142 30.9931 14.9716 30.4297 14.6307C29.8662 14.2898 29.4283 13.8139 29.1158 13.2031C28.8033 12.5876 28.6446 11.8679 28.6399 11.044V4.09091H32.1129V10.3622C32.1177 10.9541 32.2739 11.4205 32.5817 11.7614C32.8894 12.1023 33.3085 12.2727 33.8388 12.2727C34.1844 12.2727 34.4946 12.197 34.7692 12.0455C35.0485 11.8892 35.2687 11.6643 35.4297 11.3707C35.5954 11.0724 35.6783 10.7126 35.6783 10.2912ZM44.43 15.1847C43.734 15.1847 43.1161 15.0687 42.5763 14.8366C42.0413 14.5999 41.6175 14.2448 41.305 13.7713C40.9973 13.2931 40.8434 12.6941 40.8434 11.9744C40.8434 11.3684 40.9499 10.857 41.163 10.4403C41.3761 10.0237 41.6696 9.68513 42.0437 9.42472C42.4177 9.1643 42.8486 8.9678 43.3363 8.83523C43.824 8.69792 44.3448 8.60559 44.8988 8.55824C45.5191 8.50142 46.0186 8.44223 46.3974 8.38068C46.7762 8.31439 47.0508 8.22206 47.2212 8.10369C47.3964 7.98059 47.484 7.80776 47.484 7.58523V7.54972C47.484 7.18513 47.3585 6.90341 47.1076 6.70455C46.8567 6.50568 46.5181 6.40625 46.092 6.40625C45.6327 6.40625 45.2634 6.50568 44.984 6.70455C44.7047 6.90341 44.5271 7.17803 44.4513 7.52841L41.2482 7.41477C41.3429 6.75189 41.5868 6.16004 41.9798 5.6392C42.3775 5.11364 42.922 4.7017 43.6133 4.40341C44.3093 4.10038 45.145 3.94886 46.1204 3.94886C46.8164 3.94886 47.458 4.03172 48.0451 4.19744C48.6322 4.35843 49.1436 4.59517 49.5792 4.90767C50.0148 5.21544 50.351 5.59422 50.5877 6.04403C50.8292 6.49384 50.9499 7.00758 50.9499 7.58523V15H47.6829V13.4801H47.5977C47.4035 13.8494 47.1549 14.1619 46.8519 14.4176C46.5536 14.6733 46.2009 14.8651 45.7937 14.9929C45.3912 15.1207 44.9367 15.1847 44.43 15.1847ZM45.5025 12.9119C45.8765 12.9119 46.2127 12.8362 46.511 12.6847C46.814 12.5331 47.0555 12.3248 47.2354 12.0597C47.4154 11.7898 47.5053 11.4773 47.5053 11.1222V10.0852C47.4059 10.1373 47.2852 10.1847 47.1431 10.2273C47.0058 10.2699 46.8543 10.3101 46.6886 10.348C46.5228 10.3859 46.3524 10.419 46.1772 10.4474C46.002 10.4759 45.8339 10.5019 45.6729 10.5256C45.3462 10.5777 45.0669 10.6581 44.8349 10.767C44.6076 10.8759 44.4324 11.018 44.3093 11.1932C44.1909 11.3636 44.1317 11.5672 44.1317 11.804C44.1317 12.1638 44.2596 12.4384 44.5153 12.6278C44.7757 12.8172 45.1048 12.9119 45.5025 12.9119ZM60.9357 4.81534C60.8884 4.29451 60.6777 3.88968 60.3036 3.60085C59.9343 3.30729 59.4064 3.16051 58.7198 3.16051C58.2653 3.16051 57.8865 3.2197 57.5835 3.33807C57.2804 3.45644 57.0531 3.61979 56.9016 3.82812C56.7501 4.03172 56.672 4.2661 56.6673 4.53125C56.6578 4.74905 56.7004 4.94081 56.7951 5.10653C56.8945 5.27225 57.0366 5.41903 57.2212 5.54688C57.4106 5.66998 57.6379 5.77888 57.9031 5.87358C58.1682 5.96828 58.4665 6.05114 58.7979 6.12216L60.0479 6.40625C60.7676 6.5625 61.4021 6.77083 61.9513 7.03125C62.5053 7.29167 62.9693 7.6018 63.3434 7.96165C63.7222 8.3215 64.0086 8.7358 64.2028 9.20455C64.3969 9.6733 64.4963 10.1989 64.5011 10.7812C64.4963 11.6998 64.2643 12.4882 63.805 13.1463C63.3458 13.8045 62.6853 14.3087 61.8235 14.6591C60.9665 15.0095 59.9319 15.1847 58.7198 15.1847C57.503 15.1847 56.4424 15.0024 55.538 14.6378C54.6336 14.2732 53.9305 13.7192 53.4286 12.9759C52.9267 12.2325 52.6687 11.2926 52.6545 10.1562H56.021C56.0494 10.625 56.1748 11.0156 56.3974 11.3281C56.6199 11.6406 56.9253 11.8774 57.3136 12.0384C57.7066 12.1993 58.1611 12.2798 58.6772 12.2798C59.1507 12.2798 59.5531 12.2159 59.8846 12.0881C60.2208 11.9602 60.4788 11.7827 60.6587 11.5554C60.8387 11.3281 60.931 11.0677 60.9357 10.7741C60.931 10.4995 60.8458 10.2652 60.68 10.071C60.5143 9.87216 60.2586 9.7017 59.913 9.55966C59.5721 9.41288 59.1365 9.27794 58.6062 9.15483L57.0863 8.79972C55.8268 8.51089 54.8349 8.04451 54.1104 7.40057C53.386 6.75189 53.0262 5.87595 53.0309 4.77273C53.0262 3.87311 53.2676 3.08475 53.7553 2.40767C54.243 1.73059 54.9177 1.20265 55.7795 0.823864C56.6412 0.445075 57.6237 0.255681 58.7269 0.255681C59.8538 0.255681 60.8316 0.447443 61.6602 0.830965C62.4935 1.20975 63.1398 1.74242 63.5991 2.42898C64.0584 3.11553 64.2927 3.91098 64.3022 4.81534H60.9357ZM71.3761 15.206C70.235 15.206 69.2501 14.9811 68.4215 14.5312C67.5977 14.0767 66.9632 13.4304 66.5181 12.5923C66.0778 11.7495 65.8576 10.7481 65.8576 9.58807C65.8576 8.46117 66.0801 7.47633 66.5252 6.63352C66.9703 5.78598 67.5977 5.12784 68.4073 4.65909C69.217 4.18561 70.171 3.94886 71.2695 3.94886C72.046 3.94886 72.7563 4.0696 73.4002 4.31108C74.0442 4.55256 74.6005 4.91004 75.0692 5.38352C75.538 5.85701 75.9026 6.44176 76.163 7.13778C76.4234 7.82907 76.5536 8.62216 76.5536 9.51705V10.3835H67.0721V8.36648H73.3221C73.3174 7.99716 73.2298 7.66809 73.0593 7.37926C72.8888 7.09044 72.6545 6.86553 72.3562 6.70455C72.0626 6.53883 71.7241 6.45597 71.3406 6.45597C70.9523 6.45597 70.6043 6.54356 70.2965 6.71875C69.9888 6.8892 69.7449 7.12358 69.565 7.42188C69.3851 7.71544 69.2904 8.04924 69.2809 8.4233V10.4759C69.2809 10.9209 69.3685 11.3116 69.5437 11.6477C69.7189 11.9792 69.9674 12.2372 70.2894 12.4219C70.6114 12.6065 70.9949 12.6989 71.44 12.6989C71.7478 12.6989 72.0271 12.6562 72.2781 12.571C72.529 12.4858 72.7444 12.3603 72.9244 12.1946C73.1043 12.0289 73.2392 11.8253 73.3292 11.5838L76.5181 11.6761C76.3855 12.3911 76.0943 13.0137 75.6445 13.544C75.1995 14.0696 74.6147 14.4792 73.8903 14.7727C73.1658 15.0616 72.3278 15.206 71.3761 15.206ZM88.6168 4.09091L84.8739 15H80.8967L77.1609 4.09091H80.8185L82.8285 11.6051H82.9421L84.9592 4.09091H88.6168ZM94.6964 15.206C93.5553 15.206 92.5704 14.9811 91.7418 14.5312C90.918 14.0767 90.2835 13.4304 89.8384 12.5923C89.3981 11.7495 89.1779 10.7481 89.1779 9.58807C89.1779 8.46117 89.4004 7.47633 89.8455 6.63352C90.2906 5.78598 90.918 5.12784 91.7276 4.65909C92.5373 4.18561 93.4914 3.94886 94.5898 3.94886C95.3664 3.94886 96.0766 4.0696 96.7205 4.31108C97.3645 4.55256 97.9208 4.91004 98.3896 5.38352C98.8583 5.85701 99.2229 6.44176 99.4833 7.13778C99.7437 7.82907 99.8739 8.62216 99.8739 9.51705V10.3835H90.3924V8.36648H96.6424C96.6377 7.99716 96.5501 7.66809 96.3796 7.37926C96.2092 7.09044 95.9748 6.86553 95.6765 6.70455C95.3829 6.53883 95.0444 6.45597 94.6609 6.45597C94.2726 6.45597 93.9246 6.54356 93.6168 6.71875C93.3091 6.8892 93.0652 7.12358 92.8853 7.42188C92.7054 7.71544 92.6107 8.04924 92.6012 8.4233V10.4759C92.6012 10.9209 92.6888 11.3116 92.864 11.6477C93.0392 11.9792 93.2878 12.2372 93.6097 12.4219C93.9317 12.6065 94.3152 12.6989 94.7603 12.6989C95.0681 12.6989 95.3474 12.6562 95.5984 12.571C95.8493 12.4858 96.0647 12.3603 96.2447 12.1946C96.4246 12.0289 96.5595 11.8253 96.6495 11.5838L99.8384 11.6761C99.7058 12.3911 99.4147 13.0137 98.9648 13.544C98.5198 14.0696 97.935 14.4792 97.2106 14.7727C96.4862 15.0616 95.6481 15.206 94.6964 15.206ZM105.121 8.77841V15H101.648V4.09091H104.95V6.09375H105.071C105.313 5.42614 105.724 4.90294 106.307 4.52415C106.889 4.14062 107.583 3.94886 108.388 3.94886C109.155 3.94886 109.82 4.12169 110.384 4.46733C110.952 4.80824 111.392 5.28646 111.705 5.90199C112.022 6.51278 112.178 7.22775 112.173 8.04688V15H108.7V8.72869C108.705 8.12263 108.551 7.64915 108.239 7.30824C107.931 6.96733 107.502 6.79688 106.953 6.79688C106.589 6.79688 106.267 6.87737 105.987 7.03835C105.713 7.1946 105.5 7.41951 105.348 7.71307C105.201 8.00663 105.125 8.36174 105.121 8.77841Z" fill="white"/>
</svg>
